<?xml version="1.0" encoding="UTF-8"?> <svg xmlns="http://www.w3.org/2000/svg" xmlns:xlink="http://www.w3.org/1999/xlink" version="1.1" id="Layer_1" x="0px" y="0px" viewBox="0 0 595.3 841.9" style="enable-background:new 0 0 595.3 841.9;" xml:space="preserve"> <g> <path d="M309.8,266.8c-17.1-8.6-29.1,13.2-46.7,7.1c-33.8-7.5-33.4,17.4-57.1,26.2c-10.1,2.7-20.6,4.3-29.4,10.7 c12.7-17.7,33.1-8.8,46.1-29.8c13.1-21.9,34.9-11.4,45.3-31.5c-17,11.6-41.6,0.3-55,18.5c-13.7,18.6-27.5,11.5-36.9,23.3 c-3.8,5.1-9,7.5-15.2,7.7c-7.7,0.4-9.5,15.4-29.9,12.2c7.7-5.2,19.4-4.9,21.8-15.6c0.6-2.3,2.2-2.1,3.9-1.5 c14.7,3.5,12.9-9.7,23.5-12.1c8.8-2.6,18-5.3,23.9-12.9c3-3.6,5.7-7.4,8-11.4c11.5-22.6,29.8-12.2,35.5-27.4 c-18.3,8-33.9-2.2-46.8,19.5c-3.7,5.7-8.3,13-15.7,13.9c-6.5,0.5,1.1-6.3-4.9-4.5c-17.3,2-7.8,21.6-24.3,19.3 c7.7-7.5,9.8-18,20.8-22.3c20.6-9.6,36.4-44.9,13.7-59.7c7.9,17.9-5.4,36.6-19.4,47.1c-4.9,3.6-10.8,5.8-14.5,11 c-2.9,3.3-12.9-6.8-14.1,7.6c-0.2,6.4-3.7,10.9-10.5,13.2c6.7-9.8,5.5-22.6,18.8-26.9c13.1-4.6,20.7-21.2,11-32.6 c-0.3-0.4-0.7-0.8-1.6-0.3c4.9,27.5-26.9,21.2-35.2,40.8c-4.2,8.1-4.2,19.5-14.3,22.7c-3.8,1.5-7.6,2.9-10.1,6.5 c-1-1.9,1.3-2.8,1.1-4.5c-6.7,0.7-10.9,4.2-13.2,10.7c-1.9-4-0.4-7.1,1.6-10.1c-7.4,3.1-10.4,8.9-10.3,17c-2.6-3-3.3-5.8-2.2-9.2 c-13.4,8.4-5.2,35.5,11.8,24.4c12.7-13.8,10.1-17,31.3-13c-10.3,2.3-18.3-1.1-22.8,11.9c-2.9,5.1-9.5,7.9-15.1,6.4 c-4.6-0.8-16,3-17.9,7.6c-0.6,0.8-0.4,2.6-1.9,2.3c-1.4-0.3-3-0.9-3.3-2.9c-0.9-6.6-7.9-10-14.7-7.5c-9.7,3.9-7.1,10.9-5.8,19.1 c-2.3,9.5,3.7,15.5,9,22.8c0.6-3.8-0.6-7,0.8-10.4c1.1,1.7,14.2,15.1,12.7,8.4c-0.9-1.9-3.1-5.7-1.3-7.3c3.4,0.1,5.2,6,9.5,6.8 c-4.8-14.1,3.3-5.7,11.2-8.4c0.7-0.2,1.8-0.2,1.9-1c-0.2-2-3.8-1.3-3.9-3.9c2.2-0.5,4.1,0.2,6.1,0.2c4.6,0.1-1.8-3.2,2.8-4.3 c7.2-3.3,12.5,2.1,15.2,0.7c-3.6-3.8-7.9-6.1-13.3-6.5c10-4.2,26.7-7.6,30.7,5.8c2,9.6-18.7,19.8-25.9,24.1 c7-7.3,16.3-12.3,20.8-22.1c-4.7,4.8-10.1,5-16.3,2.2c0.8,2.3,2.5,2.8,2.8,4.4c0.4,3-2,5.2-5.5,4.9c-2.3-0.2-4.5-1.6-7.2-1.1 c0.9,2.3,5,3.3,2.8,6.1c-2.7,2.6-4.2-1.7-7-2c3.9,9.9-1.9,20.7-10.5,8.8c-0.9,3.4-0.8,6.2,0.7,8.9c2.9,3.6-1.4,3.8-4.2,4.1 c-2.9,0.3-3.9,0-3.8,3.1c0.1,2.9,0.8,5.7,1.5,8.5c0.3,1.3,0.6,3,1.8,3.7c1.2-0.9,0.8-2.9,2.4-3.4c2.2,9.9,12.1,12.9,17.7,19.9 c0.7-3.7-1.6-6.9-1.2-10.7c7.2,4.5,13,9.3,9.2,19.3c14.4-15.7-4.9-23.9-2.4-30.5c0.9-1.2,2,0,3,0.3c6.5,2.3,12.5,0.3,18.8-2 c-1-1.3-2.1-1.1-3-1.2c-4.2-0.8-11.8-3-11.1-8.4c0.8-2.3,3.6-1.9,5.6-2c8.3,0.9,16.6-0.9,24.9,0.3c0.2,0,0.4-0.4,1-0.9 c-4.9-2.6-9.5-5-14.1-7.4c8.7-1.4,16.7,4.1,26.2,1.7c-4-1.8-7.5-3.1-9.9-7.3c7.9,2.5,15.2,1.1,22.4,1.5c7.4,0.4,13.6,5.2,21.7,5.6 c-8.5,6-17.6-2.2-24.6,5.2c-30,21.3-57.3,49.4-55.9,88.7c0,27.8,13.3,55.8,35.9,72.3c1.8,1.9,3.8,1.1,3.2-1.5 c-1.6-11.2,9-19.2,4.6-22.1c-13.3-11.1-8.6-32.6,8.5-38c9.1-2,20.1-9.7,12.7-19.7c-0.8-1.1-2.3-2.2-1.8-3.4 c3.8-6.3-6.1-16.4,0.4-19.5c4.9-1.5,5.9,4.7,6.4,8.2c5.6-11.1-3.4-18.2,0-21.8c3.6-3,7.7,2,8.4,5.5c0.2,0.9-0.2,2.1,1.2,2.4 c2.3-4.8,1.5-10.5,1.9-15.7c1.7-12.3,12.5-5.4,9.4,5.7c6.3-4,7.9-13.1,7.9-20.3c0.4-11.4,12.7-6.1,8.1,5.6 c15.1-13.6,1.3-19.8,4.7-26.5c6.5-5.1,12.6,5.1,15.3,10.1c1.6-8.6-1.4-16.1-5.8-24.1c11.5,4.3,22,4.8,32.3-2.1 c12.9-8.3,25.5,9.4,39,1.9c-14.1-1.3-23.9-18.1-38.9-11.2c-20.5,9.8-39.9-6.6-60.8-2.1c-8.6,1.1-15.7,5.1-24.8,4 c41.4-20.7,49.3,3.2,82.1-10.8c9.2-4,17.1-13.3,27.9-12c12.7,1.5,19,15.7,16.4,27.5c12.2-12-1.5-36.5-17.9-36.8 c-16.2-1.8-27.7,13.7-43.8,11.2c-26.4-5.6-35.6-7.5-60.7,5c21.9-21.8,44.1-10.6,63.3-37.3c17.4-24.3,33.9-3.5,52.7-18.2 c16.1-13.8,34.9,3,23.9,21C325.6,293.3,322.9,272.5,309.8,266.8z M155.8,333.9c-2.3,1.4-3.1,2.5-2.3,5.2 c1.2,10.6-12.4,17.4-22,14.4c9.1-1.8,19.2-5.2,17.1-17.4c-0.2-1.3-0.3-2.4,1.3-2.9c11.6-2.8,11.4-18.3-0.5-21.2 C162.4,307.9,166.9,328.8,155.8,333.9z"></path> <path d="M541.8,345.1c6.1-13.3,3.9-32.5-9.8-37.9c-5.4-2.3-11.3-1.1-14.9,3.1c-5.1,5.1,0.6,17,7.3,10.2c-14.9-3.7,0.1-16,9.6-7.2 c8.3,6.3,10.4,28.8-1.4,31.7c-7.5-0.6-14.7,0.3-21,4.7c-1.3,0.9-2.5,0.3-3.8-0.1c-10.9-3.8-21.7,5.6-18.8,16.4 c0.9,3.5-1.5,6.6-2.2,9.9c-0.2,1-1.6,1.1-2.5,1.4c-30,10.5-57.2-17.4-58.5-46.6c-0.8-7.3-1.3-14.6-4-21.6 c-20.4-38-59.9,3.3-44.6,36.8c1,4.4,6,1.2,8.6,4.1c1.2,1.1,3.5,2.4-0.3,3.2c-4.7,2.3-0.1,9.6,4.6,9.1c3.8,0.5,8.4-1.5,11.7,0.9 c-0.6,1.1-1.7,0.9-2.6,1.3c-6.4,2.4-3.9,11.2,2.5,9.5c5.2-0.7,10.9-2.1,15.8,0.5c-3.2,1.8-8.8,2.4-7.8,7.4c2.5,7.5,17-1.9,23.5,2.9 c-0.3,1.3-1.3,0.9-1.9,1.1c-3.5,0.8-9.2,3.4-7.4,7.9c2.9,5.5,15.5-3.6,22.7,0.7c0.2,2.4-9.9,1-8.2,7.1c2.1,6.5,13.9-3.8,22.9,0 c-3.6,1.7-8.8,2.9-7.5,7.5c2.7,5.1,14.9-6,24.2-1.4c-3.8,2-13,2.9-10.7,9.1c2.2,4.2,14.2-6,24.1-0.5c-0.8,1.6-2.2,1.3-3.3,1.5 c-3.4,0.8-8.9,4.1-7.3,8.2c3.7,5.6,16.2-6.1,25.9,5.9c-4.9-0.8-14.9-0.4-13.1,6.6c1,1.9,3.2,1.7,5.1,1.3c8.7-1.4,18,4.3,20.9,12.8 c-1.1,0.2-1.6-0.7-2.1-1.3c-2.9-3.3-11.7-5.5-13.3-0.1c-0.2,2.3,1.5,3.1,3.3,3.5c7.9,2.2,15.3,8.3,17.4,16.2c-1.5,0-2-1.2-2.9-1.8 c-2.7-2.3-8.8-3.1-9.7,1.3c0.9,6,15.7,4.7,15.8,21.2c-1.2,0.1-1.2-1.1-1.6-1.7c-1.6-2.7-6.2-5.3-8.5-2c-1,1.7-0.3,3.3,1.1,4.4 c4.3,3.5,9,9.8,7.2,15.5c-2.3-1-1.2-4.9-5.4-3.9c-5.2,0.6-0.7,12.1-3.1,16.9c-3.5,17.6-12.2,32.6-23.2,46.4 c-11,13.9-24.6,24.7-41.1,31.5c-2.3,1-5,2-5.1,5.1c0.8,7.4,10.8,6,14.2,0.9c-1.4,12-17.8,18.3-26.4,10c-3.4-3.5-8.3,4.6-22.3,0.9 c16.2-10.4,22.8-31.6,9.9-46c-1.7-1.8-1.1-2.4,0.8-3.2c49.2-14.3,58.3-69.2,20.5-102.1c-13.2-12.3-28.7-21.7-42.9-32.7 c-9.4-8.3-55.8-43.3-54.4-53c0.5-5.4-6.3-4.8-3.3,0.8c-12.3-4.6-0.1-16.1-7-17.3c-4.3-0.1-2.8,4.7-3.1,7.3 c-4.3-3.1-5.8-9.2-3.3-13.5c1.3-2.1,3-4.4,0.2-6.4c-2.4-1.8-4.6,2.2-6.4,5.1c-2.8-5.6-0.2-10.7,3.4-14.9c0.9-1.3,1.7-2.8,0.3-4.2 c-3.1-2.5-5.4,1.9-7.2,3.9c-5-11.7,12.5-13.4,8-19.3c-1.7-1.7-3.6-1.2-5.4,0.1c-1,0.8-1.4,3.2-2.6,2.5c-1.6-0.9-0.6-3-0.2-4.6 c1.7-11.6,12-8.8,13.4-15.1c-0.6-5.4-9.5-3.7-10.5,1.1c-2.6-6.9,6.6-14.2,12.8-15c2.9-0.7,7.3-1.4,7-5.2c-0.6-4.8-6.8-4.7-10.1-2.7 c-0.8,0.4-1.2,1.3-2.6,1.1c3.1-8.3,12.2-12.7,20.7-11.4c8.6,1.8,7.9-7.7,0.3-7.2c-0.9,0-1.7,0.5-3.1-0.4c5.9-4.1,12.7-5.4,19.2-2.7 c7.1,3.3,8.5-7.2,1.6-8.6c5.5-3.4,11.8,0.5,15.8,4.4c1,1,1.6,3.1,3.6,1.5c4-2.8,0.9-8-3-9.1c-4.2-1.7-4.5-2.3-3.8-6.8 c0.5-7.2,11.1-16.1,17.3-11.1c-9.3,0-9.9,12.4-1.2,9.8c6.9-4,13.2-2.2,19.5,1.4c17.8,12.2,22.4,1.3,38.6,4.1 c-9.8,3.8-6.6,15.8,3.8,11.7c-1.9,5.5-8.6,4.6-13.5,3.9c-6.2,0.3-3,6.3-0.3,9c0.7,0.9,2.2,1.7,1.4,3.1c-2.5,2-8.8-2.7-9.7,6.1 c0,7.9,8,0.4,7,4.3c-1.9,6.1,0.8,11.6,1.6,17.4c1,6.7,1.1,13.5,0.6,20.2c-2.6,15.6,3.1,40.2,23.6,36.3 c15.8-5.3,14.7-33.1,48.9-18.7c-3.8-7.1-13.2-5.4-18-11.5c-10.4-12.4-0.2-28.3,10.7-31.2C538.4,289,559.8,326.4,541.8,345.1z M416.1,259.6c-0.2,3.8,3.4,9.9,6.6,3.8c1.5-3.3-1.9-6.2-1.5-9.6c0.1-0.6,0.4-1.4-0.5-1.7C416.9,251.6,416.2,256.1,416.1,259.6z M408.4,246.3c-7.3,0.4-10.1,9.3-5.3,14c3.3,1.1,5.1-4.2,4.2-6.8C406.8,251.1,406.4,248.8,408.4,246.3z M428.3,269.8 c-0.7,8.4,8.6,5,6.7-1.4C430.4,259.1,429.5,260.5,428.3,269.8z"></path> <path d="M369.3,412.7c-5.8-0.3-15.2,5.2-10.4,11.6c4.4,4.6,15.4-6.7,23.9,0.4c-12.2,0-18.8,13.1-8.5,14.2c7-1,13.7-4.8,20.5-0.5 c-4.6,1-9,2.6-12,6.4c-3.5,4.1-0.2,10.6,5.3,9.5c4.4-0.5,8.5-3.8,13.1-2.5c0.4,1.2-0.4,1.3-1,1.6c-12,4.7-3.9,16.9-10.3,15.8 c-2.2-0.4-2.9,2.6-0.7,3.3c0.5,0.4,1.3,0.5,1.4,1.5c-10.7,1-14.4,14.7-6,22.3c1.9,1.7,4,3.3,6.3,4.3c9.5,4.6,10.1,17.4,4.3,24.1 c6.2,0,9.9-7.7,8.6-13.3c-0.9-3.1,0-4.5,2.9-5.7c4.7-1.9,7.4-5.9,9.8-10.6c1.1,2.3,0.7,19.1,5.1,11.9c3.1-3.8,4.7-8.5,7.1-12.8 c0.4-0.7,0.4-1.8,1.8-2c0.4,26.3,29.8,2,15.7-15.1c14.9,7,16,33.2-2.8,39.3c-1.8,0.6-3.9,1-3.7,3.6c0.3,2.5,2.4,3,4.4,3.3 c8.2,1.8,12.9-4.2,17-10.5c3,8.6-4.1,20.6-13.7,23.2c-2.2,0.8-5.9,0.2-6.4,3.2c0,6.4,7.1,3.9,8,5.9c-2.5,3.4-7,5.5-10.8,7.4 c-10.5,4.5-18.9,11.8-27.4,20c14.4-0.9,17.3,17.2,10.1,26.5c-6.7,10.4-16.4,16.6-28.5,18.3c-38.2,6.2-88.9-15.1-91.7-58 c1.1-36.1,33-38.8,60.6-28.3c4,0.7,7.5-0.2,10.2-3.4c1.1-1.3,1.4-2.5-0.4-3.5c-25.1-13.2-34.8-39.9-52-60.5 c-26.9-30-73.7-12.8-85.5,21.5c-4.7,11.1-9.9,25.5-23.4,27.6c-7.3,1.1-14.1-4.6-13.6-11.5c0.1-2.3,2.6-7.5,5.4-4.5 c2.1,2.1,5.1,0.8,7.4-0.6c16.3-10.6,7.9-37.8-9.8-41.4c-2.9-1.8-11,2.4-10.7-2.1c0.7-8,2.3-15.7,6.4-23.1c2.4,2.9-0.5,7.5,2.4,10.8 c1.3,2.5,4.9,1.9,5.6-0.7c1.8-7.9-4.1-15.9-2.1-23.8c1.5,0.3,1.3,1.6,1.6,2.4c1.3,3.3,5,10.7,9,10c3.8-3-2.1-22.9,3.2-26.9 c-0.3,5,3.7,15,9.3,14.5c2.2-0.9,1.8-3.1,1.5-5c-1.2-6.7,1.2-12.9,0.1-19.7c5.9,2.4,5.1,11.4,10.6,14.5c1.9,0.9,3.8,0.4,3.3-1.9 c-2.7-8.9,6.6-15.5,2.7-24.1c6,0.9,6.6,8.6,6.8,13.9c0.5,5.6,8.3,8.6,7.5,0.8c-0.6-8.7,5.5-14.9,12.5-19.5 c-2,5.7-5.1,17.2,2.5,19.4c2.3,0,2.5-2.3,2.9-3.9c2.2-8.5,11.7-17.5,20.5-16.5c-6.6,2.9-12.2,15.8-4.5,19.7 c2.7,0.5,3.3-1.8,4.1-3.5c3.9-8.6,12.5-12.8,21.2-12.9c-0.5,1.5-1.9,1.6-2.8,2.3c-5,2.8-9.9,11.9-3.8,15.9c2.3,0.9,3.9-0.5,5.2-2.1 c5.1-6.4,14.7-10.7,22.4-7.4c-6.4,2.1-15.5,10.5-8.5,16.6c6.1,0.9,9.5-9.2,22.6-5.5c1.2,0.5,3.8,0.5,3.6,2.2 c-0.2,0.8-1.1,0.6-1.7,0.6c-5.6-0.1-12.8,6.4-9,12c1.9,2.4,4.3,1.8,6.6,0.6C356,409.4,364.7,407.5,369.3,412.7z M389.4,585.7 c1.5,0.7,1.7,1.5,2,2.2c3.3,6.1,8.6,8.4,15.3,7.8c2.9-0.1,8.4-2.7,6.3-6.3c-0.9-1.2-1.8-0.4-2.7,0c-14.4,6.2-21.3-13.1-11.2-22.3 c-2.8,1.1-4.6,2.4-6.2,5.2c-2.8,6.2-12.1-0.4-14.5,5.7c-0.5,1.7,1.4,1.4,2.2,1.9c9,6.1-1.6,17.6-10,14.1 c-14.2-4.6-14-27.7,2.2-29.4c6.6-1.4,15.1,4.4,20-2c9.5-10.8,23.5-5.5,27.3-26.4c-10.8,10.8-12.2,11.6-27.3,15.8 c-2,0.6-4.1,1.4-4.6,3.4c-0.7,3.2-2.9,3.6-5.4,3.8c-10.8,3.6-40.7-6.7-43,4.7c-1,5.7,7.2,9.2,12.3,8.3c2.4-0.2,3.2,0.6,2.7,3 C349.1,599.4,387.5,611.4,389.4,585.7z"></path> <path d="M291.9,460.1c-15.1,4.4-16.3,19.1-22.4,30.9c-4.5,5.3,1.6,10.6,7,6.9c11.4-6.7,29.5,5.4,24.9,18.3 c-1.3-0.2-1.1-1.5-1.5-2.3c-4.3-10.4-23.4-8.7-19.8,4.4c3.3,8-13,6.7-9.3,14.7c1.4,1.7,3,0.8,4.5-0.1c7.2-4.3,18.1-3.6,23.3,2.6 c-7.8-0.6-16,1.2-20.6,8.1c-1,1.4-2.3,2-3.9,2.1c-2.3,0.2-4.6,0.7-4.1,3.5c0.5,2.6,2.7,2.3,4.9,1.9c9.5-2,16.4,10.4,12.2,18.6 c-1.1-0.3-1.1-0.9-1.2-1.5c-1.7-7.5-9.8-10.3-15.8-5.4c-1.7,1.4-2.7,2.5-4.6,0c-8.1-7.8-14.2,14.1-15.1,19.8 c-0.4,2.9-0.1,5.8,2.9,7.2c2.8,1.4,5,0.1,7.1-2c11.7-12.2,29.5,2.1,29.6,16.2c-0.1,1.5,0.2,4.5-1.6,5.1c-1.3,0.1-1-1.2-1.2-2 c-2.1-5.4-9.1-7.5-13.1-3.8c-4.5,2.9,1.9,8.2-3.9,7.8c-6.5,0.4-6.7-10.6-13.8-6.5c-3.7,1.6-6.9,4.3-11.2,4.9 c-1.9,0.2-2.3,3.8-0.8,6.1c0.5,0.8,1.4,1.4,2.1,2.1c1.1,1.1,3.7,0.4,3.7,2.2c0,1.3-1.6,2.6-2.4,3.9c-7.5,11.6,7.9,13.9,11.8,4.1 c5.3,21.6-37.9,20.6-34.2-0.3c0.5-1.8,0.4-3.1-1.1-4.4c-5-4.5,6.4-6.6,4-11.8c-0.8-1.9-2.6-2.2-4.5-2.1 c-7.8-0.1-4.2-15.7-13.7-12.6c-7.5,0.9-10.5,11.2-12.7,5.7c-3-3.9-8.8-4.7-9.4-10.5c-3.3-9.3-11.2-4.1-16.4,4.3 c-4-8,7.2-24.1,17.1-20.3c5.3,2.4,8.6-5.3,13.9-3.5c4.6,1.5,8.9,3.6,11.8,7.7c2.4,5.1,10.7,7.5,11.8,0.3c0.9-6.7,9.4-1,10.4-12.8 c0.7-9.9,3.4-35.1-13.5-26.5c-2,0.9-30.2,12.6-25.4,5.7c6.5-14-2.3-33.1-19.2-31.4c11.7,3.7,19.1,16.6,13.7,28.1 c-8.1,21.6-41.5,15.9-45.2-5.8c-4.5-16.4,13.5-23.3,6.2-26.5c-6.2-3.7-9.6-9.2-9-16.6c0.2-22.1,35.4-13.2,29.9-36.6 c-0.9-1.5,0.5-2.4,1.8-1.3c3.4,1.9,5,5.1,6.2,9.3c17.2-24.2,48.7,17.2,20.5,25.7c-5.2,1.1-9.7,3.3-10.6,9.1 c-2.6,16.9,18.9,23.5,31.5,14c8-5.4,12.5-13.3,16-22c2.4-4.6,2.6-10.7,6.2-14.5c0.9,3.2-0.8,6.4,1.2,9.5c1.5,4.5,7.3,4.8,8.8,0.2 c4.4-16.8,17.4-28.3,35-28.9C290.9,459.1,291.4,459.3,291.9,460.1z"></path> <path d="M184.9,650.6c14.2-1.3,10.9-22.5-1.8-22c-3.3,0.2-4.1-1-4.7-3.8c-0.2-7.4-10.6-15.8-4.5-16.7c17.7-5.4,35.9,6.3,39,24.5 c6.4,26-30.7,51.7-52,30.1c-1.6-1.7-2.2-0.4-3.2,0.2c-8.6,6.2-22.2,6.1-29.2-1.3c-3.3-10.1-21.5,9.3-39.8-11.9 c-13.1-13.1-9.9-39.4,8.9-45.3c1.6-0.5,2.6-1.3,3.3-2.9c14.2-32.4,56.9-27.2,66.6,0.5c1.5,3-0.1,4.8-2.5,2.2 c-15.7-9.8-43.5-8.1-48.3,12.9c-0.5,2.4-1.4,3.2-4,2.8c-9.9-1.9-16.7,12.3-8.3,18.1c5.1,3.6,11.5,1.6,13.8-4.5 c1-2.7,1.6-2.4,3.4-0.7c12.4,14,45.6,5.4,28.9-13.4c3.4,31.2-47,10.1-23.4-11c19.2-13.8,47.3,0.2,49.7,24c0.5,1.4-0.2,3.9,1.5,4.5 c1.1,0.2,1.8-0.4,2.5-1.3C189.4,627.5,194.9,645.6,184.9,650.6z"></path> <path d="M364.6,702.1c16.2,1.2,5.4-21-4.9-8.8c-2.6-5.9,6.5-19.6,13.3-12.6c2.8,2,5.9,4,9.5,3.5c17.6-4.7,45.6,19.9,46.2,2.9 c4.9,4.4,3.4,12.2-2.7,14.6c-5.4,1.8-12.3-0.3-15.6,5.6c-11.6,18.1-38.2,24.9-60.1,13.6c-19.1-12-17.5,9.6-32.6,15 c-12.3,5.2-24.2,5.3-35.3-2.9c-1.4-1-2.2-0.4-3.3,0.1c-14.8,6.5-34.4,3.5-43.4-10.8c-1.1-1.8-2-1.9-4-1.2 c-23.4,10.2-65.5-1.3-64.6-31.6c1.8-9.9,12.8-15.2,21.7-10.3c4.5,1.7,7.2,10.3,0.3,10.2c-2.9-0.1-4.4,2-3.5,5.2 c6.6,12,22.8,13.9,34.9,10.5c2.6-0.7,4-2.5,3.9-5.5c-0.4-23.2,20.2-28.5,33.7-10.5c1.5,1.5-0.1,2.1-0.9,2.9 c-14.5,12.3,1.9,33.5,18.2,23.7c3.1-1.9,5.4-4.5,7.2-7.7c0.5-2.4,2.1-2,2.5,0.2c2.6,12.2,15.4,16.1,24.1,12.5 c4.2-0.7,10.4-9.5,3.5-10.4c-6-0.3-7.8-1.5-8.9-5.9c-2.7-12.5,14.4-16.5,23.3-11.7c18.9,9.5,40.2,28.8,62,14.7 c3.1-2,8-7.2,4.7-10.8C385.2,691,383.3,717.5,364.6,702.1z"></path> <path d="M317.3,641.9c25.4-26.5,65.4,0,45.7,31.9c-8.9,12-23.5,15.1-35.9,7.4c-2-1.2-4.5-2.3-2.9-6.4c-7.1,8.2-16.6,11.1-26.2,7.5 c-1.2-0.4-2.2-0.5-3.2,0.7c-6.5,7.1-14.4,9.7-23.8,7c-20.3-5-24.9-36-6.4-45.6c8.3-4.7,17.5-3.4,24.7,2.9 c14.6,10.7,29.2-10.8,15.4-21.4c-7.9-6.7-21.3-0.9-21.6,9.5c-0.2,2.7-0.8,3.5-3.6,2.7c-3.3-2.2-12.2,2.4-12.2-2.5 c-0.4-7.7,4.8-16,12.5-19.3c-0.3,3.2-1.9,6-1.3,9.1c7.3-27.1,44.3-23.6,54.6-1.5c1.2,2.4,1.2,3.9-2,4.8 C324.1,630.7,320.3,636.1,317.3,641.9z M339.3,664c9.2-4,3.1-15.1-5.1-15.6c-8.2-0.6-19.6,5.7-24.2,13.8c7.3-4.2,13.8-9.6,22.7-9.5 C339.7,653.1,342.4,657.4,339.3,664z M273.4,657.5c-7,9,6.4,16.6,11.9,9c2.4-3.3,2.2-6.1-0.8-8.5 C285.3,668.3,272.1,668.3,273.4,657.5z"></path> <path d="M308.1,227.5c-2,13.3,18,15.4,23.1,4.4c3-10.2,19.9-13.3,18.2,0.8c3.9-3.4,2.8-10-2-12.8c-5.3-4.5-13.9,3.6-14.5-3.1 c-0.6-4.8-6.1-9.6,0.4-12.5c9.8-6,21.5-4.2,29.7,4.5c17.7,16.1,0.1,51.1-22.8,39.2c-2-1.1-3.2-1.2-4.7,0.7 c-8.6,10.7-31.4,10.6-37.8-6.8c-0.6-1.7-1.2-2-2.8-1c-27.5,19.6-58.7-24-31.8-45.8c12.8-28.8,55.5-30.3,70.5-2.6 c2.7,4.7,2.7,4.9-1.9,7.5c-5,3.7-6,4.2-10.2-0.7c-25.3-21.1-67.2,11.9-43.7,27.2c13.3,6,23.6-13.5,10.4-21c-3.9-2.3-4-2.6-0.1-5 c7.7-4.7,15.9-4.2,23.7-0.9c12.2,4.3,24.1,23.2,12.2,33.6C317.5,237.9,311,235.5,308.1,227.5z"></path> <path d="M573.9,462.4c0.6-9.1,0.2-19.9-7.3-26.2c-3.6-3.6-12.6-2.4-11.6,3.2c2,2.8,5.3-4.7,10.4,2.8c10.6,16.3-4.2,25.5,5.2,29.3 c23.8,11.5,10.5,51.9-11.7,36.6c-9.3-8.5,1.5-24.7,8.8-10.5c6.7-18.1-31.8-13.8-10.4,17.9c32,42.2-16.8,87.9-44.9,54.6 c-6.2-9.2-2.5-22.6,7.4-26.4c10-5.3,23.6,11.9,11.3,12.1c-1.4-0.2-2.1,0.3-2.7,1.4c-2,13.4,33.2,5.5,14.7-29.9 c-10.3-17.7-17-46.7,6.2-57.2c5.9-2.5,7.1-9.8,8.8-15.4c1.2-5.2-17.4-0.3-17.6-18.7C547.7,397.7,603.2,423,573.9,462.4z"></path> <path d="M65.6,511.3c5.5,0.7,12.2,0.9,14.4-4.9c0.6-2.2,0.3-4.1-2.4-4.4c-1.5-0.1-1.8-0.7-1.8-2.1c0.2-6-8-11.2-12.4-5.9 c-8.6,8.1,0.8,19.6-5.3,28.4c-13.4,17-43.8,1.5-37.6-19.2c1.2,0.1,0.9,1.1,1.1,1.8c2.2,13.5,23.4,20.4,19.7,4.5 c-1.6-4.1-1.6-4.1,2.4-5.5c9.7-4.4,2-17.7-6.7-18.7c-8.4-3.3-6,11.8-13.6,6.2c-5.6-5.4-11.8-0.1-10.2,7.3c0.3,1.3,1.2,2.4,0.9,4 c-9.6-5.6-8.4-21.6-0.4-28.4c3.9-2.7,8.3-8.5,13-3.9c2,1.7,4.3,2.5,6.7,0.8c4.6-2.7,1.8-11.4-3.3-11.3c-3.3,0.1-5.7-0.8-8-3 c-4.2-3.8-7.1,3.5-9.4,2.6c-0.9-0.5-0.7-1.6-0.7-2.4c-1-12,7.6-9.6,7.8-15.2c-2.6-5.9-11.1-3.6-16.1-1.4c3.5-9.3,15.2-13,23.4-7.6 c1.9,1.2,3.8,2.2,6.2,1.9c1.8-0.2,3,0.5,3.2,2.5c2.9,8.6,7.2,5,5.9,17.4c0,5.3,7.9,6.5,9.8,1.7c2.9-4.8-1.6-9.4-0.5-14.3 c0.3-0.8-0.2-1.4-0.7-2.1c-6.2-10.6,5.5-10.4,6.7-15.5c-2.4-5.2-10.9-2.8-14.8-0.6c-1-1-0.3-1.6,0.1-2.2c5.7-8.9,18.7-9.5,24.4-0.5 c2.4,3.8,4.5,7.6,7.7,11.1c10.1,13.2-20.2,16.7-7.5,31.5c3.3,3.8-1.8,7,5,10.6c12.2,8.7,24.9,0.1,25.1,7.3c1.5,9.7,4.5,19,9.2,27.7 c1.8,2,0.4,3.9-2.2,3.3c-7.5,0.9-10.8-10.1-14.6-3C84.4,518.2,70.7,517.5,65.6,511.3z"></path> <path d="M522.5,390.2c0.6,9.2-8.2,11.7-14.5,10.1c-15-3.9-19.8-21.3-15.6-34.4c-1.6-4.9-0.3-9,3.6-11.7c8.9-5.9,12.4,2.5,16.5,0.3 c43.2-23.4,67.5,37.3,29.7,61.2c-0.7-1.5,0.3-1.9,0.8-2.5c11.8-13.7,7.7-36.2-8.3-44.7c-7.8-4.2-18.7-3.3-25.2,1.9 c-6.6,5.3-6.7,16.7,0.2,19.8c-10.6-25.7,31.7-26.6,34.7-0.5c6.3,31.2-39.6,42.9-50.4,14.3c-1.8-3.8,0.1-5.5,2.9-2.1 C507.1,412,533.7,404.5,522.5,390.2z"></path> <path d="M474.2,235c-9.9,22.2,27.9,11.2,22.4,43.5c-4.8,20.2-22.8,14.2-23,20.1c2.1,7.7,16.2,4.3,21.3,0.7 c-3.2,8.1-11.4,10.3-18,14.6c-8.2,7,3.9,17.9,10,8.5c2.4,9.8-10.9,17.7-20.8,17c-6.2,0-13.2-2.7-12.4-10 c0.2-13.3-0.1-26.6-2.3-39.8c-2.6-11.8,8.9-23.2,19.2-18.1c0.2,0.6-0.5,0.8-1,1c-8.6,2.7-2.8,12.6,4.2,9.6 c12.5-6.2,5-17.5-4.1-22.7C461.6,252.4,464,238.8,474.2,235z"></path> <path d="M385.9,630.2c7.5,0.1,13.1,3,17,9c2.1,5.3,10.3,8.6,12.3,1.4c6.2-13.8,27.2-12.1,34.9-0.3c2.6,3.7,6.5,1.8,9.9,1.8 c5.6-0.6,0.3-10.5,10.9-11.2c3.1-0.2,6.1-0.5,9.2-1.2c12.9-1.8,11.2,18-0.3,18.7c-3.5,0.6-7.4,0-9.4,3.6 c-4.8,6.9-13.4,9.5-20.9,6.5c-2.7-1.1-4.7-2.7-6-5.4c-4.2-8.5-14-5.6-18.4,1.2c-19.9,17.2-20-12.4-35.5-7.2 c-5.1-0.2-6.9,10.9-11.5,5.6c-2.7-3.6-5.1-7.5-7.2-11.5C369.4,634,380.5,630.3,385.9,630.2z"></path> <path d="M32.6,563.1c-0.3-4.2,2.2-8.5-4.1-9.6c-8.3-3-2.9-17.8,5.9-16.2c13,1.1,7.7,15.8,9.1,24.6c3,12.7,9.5,22.2,22.6,25.9 c6,3,24.1-1.8,18.1-10.3c-10.5-8.7,3.9-22,13-14.2c17.8,15.9-2,43.2-22.8,43.3C50.8,607.8,31.9,584.8,32.6,563.1z"></path> <path d="M162.5,563.2c-8.8,0.6-18,6.9-25.9,0.2c-6-3.9-2.8,8.3,0.4,10.4c-11.9-0.2-12.8-9.9-19.2-7.9c-7.2,2.2-11.9-0.8-13.5-8.1 c-0.6-5.2-3.5-11.5-9.7-8.6c-5.3,1.4-10.4-3.1-11.9,5.1c-4.1-2.1-4-7.7-2-11.5c4-11.9-14.7-7.4-17.5,0.4 c-1.4-12,11.5-20.9,22.5-17.4c4,1.9,8-3.3,11.3,0.2c3.5,3.9,7.6,7.1,10.1,11.9c2.1,4,6.2,4.8,10.3,5c4.7,0.2,9.2-1.1,13.6-2.8 C143.4,534.4,139.7,554.4,162.5,563.2z"></path> <path d="M454.7,218.8c0.3,6.3-5.7,13.8-12.6,16c-13.4,4.6-24-4.9-33.9-12.5c-24.2-15.9-32.3,15.1-32.4,4.6 c-0.8-7.6-3-14.5-8.1-20.4c-2.8-3.1,2.6-5.5,4.8-6.9c15.2-7.6,34.4-4.8,46.7,6.9C429.4,217.4,440.1,233.9,454.7,218.8z"></path> <path d="M450.9,684.5c-2.7,0.6-19.8-2.6-15.2-6.4c7.9-4.8,7.5-17.1,12-14.9c20.1,5.3,20.2-7,31.5-10.4c15-0.6,20.7-19.2,7.3-26.6 c-10.4-7,6-16.3,12.8-9.5c14.2,10.6,6.4,36.2-9.2,42.8C474.7,670.2,477.1,683.7,450.9,684.5z"></path> <path d="M414.6,683.1c-5.7-0.4-11.5-2.3-15.8-7.4c-3.5-5.8-9.4,10.8-22.8,0.7c-8.3-5.4-3.6-22.8,7.1-16.9c1.9,1.1,2.1,0.5,2.1-1.1 c-0.6-8,10.2-9.9,13.6-3.3c2.1,3,4.1,6.1,7.7,7.6c9.4,4.3,17.8-0.3,24.2-7.3C446,646.9,440.9,683.6,414.6,683.1z"></path> <path d="M495.2,589.5c15.4-0.1,26.8,9.9,28.4,24.2c0.7,6.1-1.9,10.4-6.3,14.2c-4.1,3.5-4,3.6-5.7-1.4c-3.9-19.2-31.6-23.7-32.2-2.9 c0.2,2.1-0.3,2.7-2.6,2.4c-5.6-0.6-7.9-4.5-8.4-10C466.7,601.8,480.8,589.1,495.2,589.5z"></path> <path d="M206.1,321.5c28.4-4.7,30.1-29.3,58.3-28c18,0,28.2,20.3,46.9,17.4c-7.4,6.4-21.2,2.6-29.1-2.3 C249.1,294,254,336.1,206.1,321.5z"></path> <path d="M236.5,654.1c19.2-0.1,7.1,6.7,11.2,18.9c2.5,6.7-17.6-8.5-25.8,14.1c-3,4.5,0.8,17.2-5.7,14c-2.7-0.9-4.8-2.7-6.5-5 C196.6,677.7,214.7,652.3,236.5,654.1z"></path> <path d="M401.1,328.2c0-5.6,1.9-8,6.7-8.7c2.1-0.3,2.9-1.4,2.7-3.4c-1.3-9.1-10.9-13.5-19.6-12.4c6.5-5.9,18.1-4.8,23.2,2.6 c7.3,11.8,5.1,26.4,9.1,39.3c6.1,26.6,33,49.8,61.1,40.6c1.8-0.6,2.6,0,3.3,1.6c3.1,7.5,3.1,7.3-5.1,7.5 c-18.7,0.7-33.8-10.7-48-21.3c-7.7-7.3-15-1.1-13.7-5.2c4.7-6.1-0.4-15.5-8.3-13c-4.7,2.5-0.7-5.2,1.4-5.7c2.9-1.5,2.8-3.7,1.5-6.1 c-4.5-7.5-8.6-0.3-9.9-2.3c-1.2-2.9,2.3-7.1,5.3-7.7C418.2,331.5,407.7,320,401.1,328.2z"></path> <path d="M293.9,471.5c9-9.6,20.9-7.7,26.2,4c0.5,0.8,0,1.4-0.4,2.1c-1.4,2.4-0.5,4.4,2.3,4.5c6.2,0.3,11.7,17.4,17,22.3 c5.1,7.8,12.5,12.7,18.9,19.2c-7.6-1.9-15-3.5-21.2-8c-4.3-3.2-9.7-2.4-13.2,1.1c-1.8,3.8-3.4,1.8-5-0.1 c-8.9-9.7,7.4-14.8-0.7-18.3c-12.1-3.7-0.7-10.8-8-13.8c-7.9-2.5,1.2-15.5-13.1-13.1C296,471.6,295.3,472.3,293.9,471.5z"></path> <path d="M241.3,182.1c3.5-0.5,20.4,4.7,15.8,10.4c-3.7,2.1-5.3,15.4-10.3,10c-3.6-4-12.1-5.4-15.1,0.1c-0.7,1.6-1.8,3.5,1.7,3.2 c5-0.1,6,7.3,2.3,9.8c-10.9,9.2-24.5-6.5-19.1-18.4C220.1,187.6,230.3,181.1,241.3,182.1z"></path> <path d="M429.6,475.2c-1.4-0.5-1.4-1.7-1.8-2.5c-2.5-5.7-14.1-7.4-13.6,0.7c-0.3,6.4-5.8,8.1,2.2,13.6c4,3.4-7.2,2.3-6.5,7.5 c-0.1,3.1-5.9,10.2-8.8,7.6c-3.9-6.7-14.1-5.9-16.4-13.7c-2.6-7.7,6.7-9.8,10.3-4.3c0.5,0.8,0.3,2.3,1.6,2.2c1-0.1,0.7-1.6,1.3-2.1 c5.2-4.2,2.5-8.8,1.1-13.5c-3.1-10.2,5.1-9.6,12-12C420.9,454,432.3,465.4,429.6,475.2z"></path> <path d="M147.9,205.1c6.1,6.1,5.3,17.8-1.4,23.7c-11.1,8.2-24.3,5.5-30.2,21.2c-10,26.4-26.5,15.5-46.6,22.3 c14-15.2,32.1,0.7,41.6-28.2C120.5,221.4,150.6,235.1,147.9,205.1z"></path> <path d="M267.1,694.1c2.3,0.5,7.9,1,10.1,3.7c4.1,8-5.2,18.9-14.2,15.1C253,709.1,254.7,693.4,267.1,694.1z"></path> <path d="M296,627.5c12.2-0.3,12.7,18.3,0.3,18.3C283.7,645.7,283.8,627.7,296,627.5z"></path> <path d="M290.5,216.5c-0.8,10-16,9.6-15.9-0.6C275.1,205.5,290.4,206.6,290.5,216.5z"></path> <path d="M118,630.4c-0.4,9.1-13.9,9.8-13.9-0.1C104.1,621.8,118.4,621.8,118,630.4z"></path> <path d="M181.5,442.4c-0.5,2.7,2.5,13.6-1.6,11.1c-4.6-2.5-4.7-2.4-1.7-6.7C179.1,445.5,179.5,443.8,181.5,442.4z"></path> </g> </svg> 